<svg width="421" height="172" viewBox="0 0 421 172" fill="none" xmlns="http://www.w3.org/2000/svg">
<path d="M160.223 118.765C152.792 118.765 146.997 116.709 142.836 112.598C138.725 108.487 136.669 102.617 136.669 94.9886V65.8623H148.706V94.5428C148.706 103.855 152.57 108.512 160.297 108.512C164.062 108.512 166.935 107.397 168.916 105.168C170.897 102.889 171.888 99.3476 171.888 94.5428V65.8623H183.776V94.9886C183.776 102.617 181.696 108.487 177.535 112.598C173.424 116.709 167.653 118.765 160.223 118.765Z" fill="black"/>
<path d="M189.652 92.3137H210.68V101.601H189.652V92.3137Z" fill="black"/>
<path d="M224.991 75.6701H208.347V65.8623H253.672V75.6701H237.028V117.874H224.991V75.6701Z" fill="black"/>
<path d="M295.016 77.8992V117.874H284.02V113.118C282.484 114.852 280.651 116.189 278.521 117.131C276.391 118.022 274.088 118.468 271.611 118.468C266.361 118.468 262.2 116.957 259.129 113.936C256.058 110.914 254.522 106.431 254.522 100.487V77.8992H266.113V98.778C266.113 105.217 268.813 108.437 274.212 108.437C276.986 108.437 279.215 107.546 280.899 105.762C282.583 103.93 283.425 101.23 283.425 97.6635V77.8992H295.016Z" fill="black"/>
<path d="M313.111 83.1746C314.498 81.2428 316.355 79.7815 318.683 78.7908C321.061 77.8001 323.785 77.3048 326.856 77.3048V88.0042C325.569 87.9052 324.702 87.8556 324.256 87.8556C320.937 87.8556 318.337 88.7968 316.454 90.6791C314.572 92.5119 313.631 95.2858 313.631 99.0009V117.874H302.04V77.8992H313.111V83.1746Z" fill="black"/>
<path d="M354.33 77.3048C359.284 77.3048 363.271 78.7908 366.293 81.7629C369.364 84.7349 370.899 89.1435 370.899 94.9886V117.874H359.308V96.7718C359.308 93.6016 358.615 91.2487 357.228 89.7132C355.841 88.1281 353.835 87.3355 351.209 87.3355C348.287 87.3355 345.959 88.2519 344.225 90.0847C342.491 91.8679 341.624 94.5428 341.624 98.1093V117.874H330.033V77.8992H341.104V82.5802C342.64 80.896 344.547 79.6081 346.826 78.7165C349.104 77.7754 351.606 77.3048 354.33 77.3048Z" fill="black"/>
<path fill-rule="evenodd" clip-rule="evenodd" d="M84.8865 52.3448C86.8632 50.3681 90.068 50.3681 92.0447 52.3448L110.555 70.8554L91.9605 88.605C89.9384 90.5352 86.7345 90.4607 84.8043 88.4386C82.8741 86.4165 82.9486 83.2126 84.9707 81.2824L90.6798 75.8328H78.3424C68.4652 75.8328 60.4581 83.8399 60.4581 93.7171C60.4581 103.594 68.4652 111.601 78.3424 111.601H103.313C106.108 111.601 108.375 113.868 108.375 116.663C108.375 119.458 106.108 121.725 103.313 121.725H78.3424C62.8743 121.725 50.335 109.185 50.335 93.7171C50.335 78.249 62.8743 65.7096 78.3424 65.7096H91.0932L84.8865 59.503C82.9099 57.5263 82.9099 54.3215 84.8865 52.3448Z" fill="black"/>
</svg>
